<svg width="47" height="46" viewBox="0 0 47 46" fill="none" xmlns="http://www.w3.org/2000/svg">
<path d="M46.9884 30.3059C47.4576 41.9802 33.5583 46 21.5289 46C9.49938 46 0 36.3158 0 24.2808C0 12.2457 3.29677 0 15.3262 0C24.2335 0 28.2821 8.55366 34.462 14.4675C40.6592 20.3978 46.6717 22.4249 46.9884 30.3059Z" fill="#EDEFF1"/>
<path d="M19.24 27.656C19.3787 27.9973 19.528 28.2533 19.688 28.424C19.8587 28.584 20.024 28.6693 20.184 28.68V29C19.416 28.968 18.4453 28.952 17.272 28.952C16.056 28.952 15.16 28.968 14.584 29V28.68C14.9893 28.6587 15.2773 28.6107 15.448 28.536C15.6187 28.4507 15.704 28.3067 15.704 28.104C15.704 27.912 15.64 27.656 15.512 27.336L14.568 24.712H11.336L11.064 25.432C10.712 26.3387 10.536 27.032 10.536 27.512C10.536 27.9493 10.6587 28.248 10.904 28.408C11.1493 28.568 11.512 28.6587 11.992 28.68V29C11.192 28.968 10.4933 28.952 9.896 28.952C9.39467 28.952 8.984 28.968 8.664 29V28.68C8.93067 28.6373 9.18133 28.472 9.416 28.184C9.65067 27.896 9.89067 27.4373 10.136 26.808L13.688 17.672C14.0293 17.6933 14.312 17.704 14.536 17.704C14.7493 17.704 15.0267 17.6933 15.368 17.672L19.24 27.656ZM14.456 24.392L13 20.392L11.464 24.392H14.456Z" fill="#8D959B"/>
<path d="M31.1096 27.704C31.259 27.9493 31.403 28.1467 31.5416 28.296C31.6803 28.4347 31.8616 28.5627 32.0856 28.68V29C31.1896 28.968 30.2296 28.952 29.2056 28.952C28.4163 28.952 27.6536 28.968 26.9176 29V28.68C27.259 28.6587 27.4936 28.632 27.6216 28.6C27.7603 28.5573 27.8296 28.4827 27.8296 28.376C27.8296 28.2693 27.7763 28.1307 27.6696 27.96L25.3496 24.04C25.2003 23.784 25.0723 23.608 24.9656 23.512C24.8696 23.416 24.747 23.3573 24.5976 23.336V27.304C24.5976 27.7093 24.6243 28.0027 24.6776 28.184C24.7416 28.3653 24.8483 28.488 24.9976 28.552C25.147 28.616 25.3923 28.6587 25.7336 28.68V29C25.115 28.968 24.2243 28.952 23.0616 28.952C21.771 28.952 20.8216 28.968 20.2136 29V28.68C20.555 28.6587 20.8003 28.616 20.9496 28.552C21.1096 28.488 21.2163 28.3653 21.2696 28.184C21.323 28.0027 21.3496 27.7093 21.3496 27.304V19.368C21.3496 18.9627 21.3176 18.6693 21.2536 18.488C21.2003 18.3067 21.099 18.184 20.9496 18.12C20.8003 18.056 20.555 18.0133 20.2136 17.992V17.672C20.8216 17.704 21.771 17.72 23.0616 17.72C24.2136 17.72 25.1043 17.704 25.7336 17.672V17.992C25.3923 18.0133 25.1416 18.056 24.9816 18.12C24.8323 18.184 24.731 18.3067 24.6776 18.488C24.6243 18.6693 24.5976 18.9627 24.5976 19.368V22.984C25.0243 22.952 25.4403 22.792 25.8456 22.504C26.251 22.216 26.747 21.7413 27.3336 21.08L27.8776 20.472C28.347 19.9387 28.5816 19.4587 28.5816 19.032C28.5816 18.7227 28.459 18.4773 28.2136 18.296C27.9683 18.104 27.6536 17.9973 27.2696 17.976V17.672C28.1656 17.704 29.067 17.72 29.9736 17.72C30.6243 17.72 31.163 17.704 31.5896 17.672V17.976C30.6616 18.2213 29.787 18.808 28.9656 19.736L27.3976 21.512L31.1096 27.704Z" fill="#8D959B"/>
</svg>
